<?xml version="1.0" encoding="UTF-8" standalone="no"?>
<svg
   xmlns:dc="http://purl.org/dc/elements/1.1/"
   xmlns:cc="http://creativecommons.org/ns#"
   xmlns:rdf="http://www.w3.org/1999/02/22-rdf-syntax-ns#"
   xmlns:svg="http://www.w3.org/2000/svg"
   xmlns="http://www.w3.org/2000/svg"
   xmlns:sodipodi="http://sodipodi.sourceforge.net/DTD/sodipodi-0.dtd"
   xmlns:inkscape="http://www.inkscape.org/namespaces/inkscape"
   version="1.1"
   id="svg833"
   xml:space="preserve"
   width="883.18958"
   height="142.59302"
   viewBox="0 0 883.18956 142.59302"
   sodipodi:docname="Prometheus_logos.ai.svg"
   inkscape:version="1.0.2 (e86c8708, 2021-01-15)"><metadata
     id="metadata839"><rdf:RDF><cc:Work
         rdf:about=""><dc:format>image/svg+xml</dc:format><dc:type
           rdf:resource="http://purl.org/dc/dcmitype/StillImage" /><dc:title></dc:title></cc:Work></rdf:RDF></metadata><defs
     id="defs837" /><sodipodi:namedview
     pagecolor="#ffffff"
     bordercolor="#666666"
     borderopacity="1"
     objecttolerance="10"
     gridtolerance="10"
     guidetolerance="10"
     inkscape:pageopacity="0"
     inkscape:pageshadow="2"
     inkscape:window-width="1440"
     inkscape:window-height="795"
     id="namedview835"
     showgrid="false"
     inkscape:zoom="0.73705304"
     inkscape:cx="441.59495"
     inkscape:cy="71.296002"
     inkscape:window-x="0"
     inkscape:window-y="23"
     inkscape:window-maximized="1"
     inkscape:current-layer="g841"
     fit-margin-top="0"
     fit-margin-left="0"
     fit-margin-right="0"
     fit-margin-bottom="0" /><g
     id="g841"
     inkscape:groupmode="layer"
     inkscape:label="ink_ext_XXXXXX"
     transform="matrix(1.3333333,0,0,-1.3333333,-119.66506,468.14665)"><g
       id="g843"
       transform="scale(0.1)"><path
         d="m 1040.1,3358.54 v -285.23 h 142.62 c 19.54,0 37.93,3.73 55.16,11.18 17.22,7.45 32.3,17.64 45.21,30.56 12.92,12.92 23.11,28.08 30.57,45.47 7.45,17.39 11.18,35.85 11.18,55.41 0,19.54 -3.73,38.01 -11.18,55.4 -7.46,17.4 -17.65,32.55 -30.57,45.47 -12.91,12.92 -27.99,23.1 -45.21,30.56 -17.23,7.45 -35.62,11.18 -55.16,11.18 z m 0,-569.97 H 897.488 v 712.59 h 285.232 c 26.16,0 51.34,-3.4 75.53,-10.19 24.18,-6.79 46.79,-16.4 67.83,-28.83 21.03,-12.41 40.25,-27.32 57.64,-44.72 17.39,-17.39 32.3,-36.69 44.72,-57.89 12.43,-21.2 22.03,-43.9 28.82,-68.07 6.79,-24.19 10.19,-49.37 10.19,-75.53 0,-39.1 -7.45,-75.95 -22.36,-110.57 -14.91,-34.62 -35.28,-64.85 -61.12,-90.69 -25.84,-25.84 -56.07,-46.21 -90.69,-61.12 -34.62,-14.9 -71.48,-22.36 -110.56,-22.36 H 1040.1"
         style="fill:#163057;fill-opacity:1;fill-rule:nonzero;stroke:none"
         id="path845" /><path
         d="m 1693.55,3358.54 v -285.23 h 142.62 c 19.54,0 37.93,3.73 55.16,11.18 17.22,7.45 32.29,17.64 45.21,30.56 12.92,12.92 23.11,28.08 30.56,45.47 7.46,17.39 11.18,35.85 11.18,55.41 0,19.54 -3.72,38.01 -11.18,55.4 -7.45,17.4 -17.64,32.55 -30.56,45.47 -12.92,12.92 -27.99,23.1 -45.21,30.56 -17.23,7.45 -35.62,11.18 -55.16,11.18 z m 0,-569.97 h -142.61 v 712.59 h 285.23 c 26.16,0 51.34,-3.4 75.53,-10.19 24.18,-6.79 46.79,-16.4 67.82,-28.83 21.04,-12.41 40.26,-27.32 57.65,-44.72 17.39,-17.39 32.3,-36.69 44.72,-57.89 12.43,-21.2 22.03,-43.9 28.82,-68.07 6.79,-24.19 10.19,-49.37 10.19,-75.53 0,-24.52 -3.06,-48.38 -9.2,-71.56 -6.13,-23.19 -14.9,-45.22 -26.33,-66.09 -11.43,-20.87 -25.42,-40.09 -41.99,-57.65 -16.57,-17.56 -35.12,-32.79 -55.66,-45.71 l 79.02,-186.35 h -151.56 l -62.12,143.61 -159.51,-0.99"
         style="fill:#163057;fill-opacity:1;fill-rule:nonzero;stroke:none"
         id="path847" /><path
         d="m 2615.75,3166.61 c 9.82,17.88 32.98,20.14 45.32,4.03 5.67,-7.31 4.91,-15.87 3.02,-24.18 -3.14,-12.97 -10.7,-23.29 -22.03,-30.08 -11.33,-6.81 -23.29,-12.47 -36.13,-19.27 -0.25,25.06 -1.89,48.09 9.82,69.5 m 137.23,-112.43 c -11.96,-27.32 -28.07,-51.24 -48.47,-71.76 -20.4,-20.65 -44.32,-36.77 -72.02,-48.73 -8.81,-3.77 -17.75,-6.92 -26.81,-9.44 0.12,48.1 0.12,96.19 0,144.16 0,3.77 2.14,4.53 4.78,5.79 14.98,7.18 30.59,13.47 44.69,22.16 17.38,10.57 29.09,26.56 33.24,46.83 5.79,28.33 -6.92,52.25 -37.51,60.56 -26.44,7.18 -46.97,-7.56 -57.42,-27.45 -8.68,-16.74 -12.08,-34.49 -12.33,-53.13 -0.13,-9.31 -0.26,-18.76 0.12,-28.07 0,-3.53 -1,-5.29 -4.41,-5.67 -14.09,-1.13 -28.07,-2.77 -42.17,-3.02 -8.94,-0.25 -17.88,1.64 -26.82,2.65 -4.28,0.5 -5.79,2.64 -5.79,7.17 0,14.6 0.25,29.21 -1.38,43.69 -2.4,21.27 -9.32,41.04 -26.44,55.4 -12.97,10.95 -28.08,12.71 -43.94,7.93 -16.24,-4.92 -28.96,-14.23 -34.37,-30.98 -6.04,-18.76 -1.64,-36.26 8.56,-52.62 10.83,-17 26.94,-27.45 44.95,-35.38 8.18,-3.52 16.49,-7.18 24.8,-10.58 3.15,-1.38 3.02,-3.77 3.02,-6.42 v -141.51 c -7.3,2.27 -14.35,4.91 -21.4,7.93 -27.58,11.96 -51.5,28.08 -72.15,48.73 -20.52,20.52 -36.75,44.44 -48.59,71.76 -11.96,27.32 -17.88,56.53 -17.88,87.75 0,31.1 5.92,60.43 17.88,88.13 11.84,27.7 28.07,51.75 48.59,72.02 20.65,20.39 44.57,36.63 72.15,48.47 27.44,11.96 56.9,17.88 88.38,17.88 31.22,0 60.56,-5.92 88.25,-17.88 27.7,-11.84 51.62,-28.08 72.02,-48.47 20.4,-20.27 36.51,-44.32 48.47,-72.02 11.96,-27.7 17.88,-57.03 17.88,-88.13 0,-31.22 -5.92,-60.43 -17.88,-87.75 m -208.74,-138.37 c -14.48,0 -28.46,1.26 -42.05,3.78 v 140.63 c 0,1.64 0.25,3.15 0.38,4.41 13.84,-1.01 26.69,-2.64 39.65,-2.64 12.59,0 25.31,1.63 38.53,2.64 0.12,-1.64 0.38,-3.65 0.38,-5.54 0,-46.71 -0.13,-93.54 0.12,-140.25 -12.08,-2.02 -24.42,-3.03 -37.01,-3.03 m -66.98,181.81 c -18.13,9.31 -36.89,14.85 -49.35,30.71 -6.93,8.94 -10.96,19.14 -9.95,30.6 1.01,12.08 8.69,19.26 22.16,22.03 11.08,2.27 20.27,-2.27 26.31,-12.71 7.05,-12.47 10.45,-26.06 10.83,-40.42 0.25,-9.56 0,-19.14 0,-30.21 m 422.02,142.13 c -8.69,31.48 -21.03,60.82 -37.02,88.01 -15.86,27.07 -35.12,51.99 -57.54,74.53 -22.53,22.54 -47.46,41.68 -74.65,57.66 -27.07,15.87 -56.4,28.21 -87.88,37.02 -31.47,8.69 -64.09,13.09 -97.95,13.09 -33.74,0 -66.35,-4.4 -97.58,-13.09 -31.34,-8.81 -60.68,-21.15 -88,-37.02 -27.32,-15.98 -52.25,-35.12 -74.78,-57.66 -22.54,-22.54 -41.8,-47.46 -57.92,-74.53 -15.99,-27.19 -28.45,-56.53 -37.27,-88.01 -8.8,-31.47 -13.09,-64.08 -13.09,-97.82 0,-33.86 4.29,-66.35 13.09,-97.7 8.82,-31.35 21.28,-60.55 37.27,-88 16.12,-27.32 35.38,-52.25 57.92,-74.79 22.53,-22.53 47.46,-41.79 74.78,-57.78 27.32,-16.12 56.66,-28.58 88,-37.27 31.23,-8.81 63.84,-13.22 97.58,-13.22 33.86,0 66.48,4.41 97.95,13.22 31.48,8.69 60.81,21.15 87.88,37.27 27.19,15.99 52.12,35.25 74.65,57.78 22.42,22.54 41.68,47.47 57.54,74.79 15.99,27.45 28.33,56.65 37.02,88 8.81,31.35 13.21,63.84 13.21,97.7 0,33.74 -4.4,66.35 -13.21,97.82"
         style="fill:#f68932;fill-opacity:1;fill-rule:nonzero;stroke:none"
         id="path849" /><path
         d="M 3713.02,2788.58 H 3570.9 v 508.84 c 0,9.94 -1.91,19.22 -5.71,27.83 -3.82,8.61 -8.94,16.14 -15.41,22.61 -6.46,6.46 -13.99,11.51 -22.6,15.16 -8.62,3.64 -17.9,5.46 -27.84,5.46 -9.93,0 -19.21,-1.82 -27.82,-5.46 -8.62,-3.65 -16.16,-8.7 -22.61,-15.16 -6.46,-6.47 -11.51,-14 -15.16,-22.61 -3.65,-8.61 -5.46,-17.89 -5.46,-27.83 v -508.84 h -142.62 v 508.84 c 0,9.94 -1.82,19.22 -5.46,27.83 -3.65,8.61 -8.7,16.14 -15.16,22.61 -6.46,6.46 -14,11.51 -22.62,15.16 -8.61,3.64 -17.88,5.46 -27.82,5.46 -9.94,0 -19.21,-1.82 -27.83,-5.46 -8.61,-3.65 -16.15,-8.7 -22.61,-15.16 -6.46,-6.47 -11.51,-14 -15.15,-22.61 -3.65,-8.61 -5.47,-17.89 -5.47,-27.83 v -508.84 h -142.61 v 508.84 c 0,29.49 5.54,57.22 16.64,83.24 11.1,26.01 26.34,48.7 45.72,68.07 19.38,19.39 42.07,34.62 68.07,45.72 26.01,11.1 53.75,16.65 83.24,16.65 26.5,0 52,-4.72 76.53,-14.16 24.51,-9.44 46.54,-23.11 66.09,-41 19.54,17.89 41.49,31.56 65.84,41 24.35,9.44 49.76,14.16 76.27,14.16 29.49,0 57.23,-5.55 83.24,-16.65 26.01,-11.1 48.7,-26.33 68.08,-45.72 19.38,-19.37 34.61,-42.06 45.71,-68.07 11.1,-26.02 16.65,-53.75 16.65,-83.24"
         style="fill:#163057;fill-opacity:1;fill-rule:nonzero;stroke:none"
         id="path851" /><path
         d="m 4328.71,2788.58 h -488.48 v 712.58 h 488.48 v -142.61 h -345.85 v -142.62 h 234.03 V 3073.3 h -234.03 v -142.1 h 345.85"
         style="fill:#163057;fill-opacity:1;fill-rule:nonzero;stroke:none"
         id="path853" /><path
         d="m 4727.73,2788.58 h -142.11 v 569.97 h -214.17 v 142.61 h 569.96 v -142.61 h -213.68"
         style="fill:#163057;fill-opacity:1;fill-rule:nonzero;stroke:none"
         id="path855" /><path
         d="m 5159.56,2788.58 h -142.62 v 712.58 h 142.62 v -285.23 h 284.74 v 285.23 h 142.61 V 2788.58 H 5444.3 v 284.72 h -284.74"
         style="fill:#163057;fill-opacity:1;fill-rule:nonzero;stroke:none"
         id="path857" /><path
         d="m 6207.55,2788.58 h -488.48 v 712.58 h 488.48 V 3358.55 H 5861.7 v -142.62 h 234.04 V 3073.3 H 5861.7 v -142.1 h 345.85"
         style="fill:#163057;fill-opacity:1;fill-rule:nonzero;stroke:none"
         id="path859" /><path
         d="m 6869.46,3073.31 c 0,-39.42 -7.46,-76.45 -22.36,-111.06 -14.92,-34.62 -35.29,-64.77 -61.12,-90.43 -25.85,-25.68 -56.08,-45.98 -90.69,-60.88 -34.62,-14.91 -71.64,-22.36 -111.07,-22.36 -39.42,0 -76.44,7.45 -111.06,22.36 -34.62,14.9 -64.77,35.2 -90.43,60.88 -25.69,25.66 -45.97,55.81 -60.89,90.43 -14.89,34.61 -22.35,71.64 -22.35,111.06 v 427.85 h 142.12 v -427.85 c 0,-19.55 3.72,-37.93 11.18,-55.16 7.46,-17.23 17.64,-32.29 30.56,-45.22 12.92,-12.92 28.07,-23.1 45.47,-30.55 17.39,-7.46 35.85,-11.18 55.4,-11.18 19.55,0 38.01,3.72 55.41,11.18 17.39,7.45 32.54,17.63 45.47,30.55 12.92,12.93 23.1,27.99 30.56,45.22 7.45,17.23 11.18,35.61 11.18,55.16 v 427.85 h 142.62"
         style="fill:#163057;fill-opacity:1;fill-rule:nonzero;stroke:none"
         id="path861" /><path
         d="m 6951.45,3287.49 c 0,29.47 5.62,57.14 16.89,82.98 11.25,25.84 26.59,48.45 45.98,67.83 19.36,19.38 41.98,34.7 67.82,45.97 25.84,11.25 53.5,16.89 83,16.89 h 326.97 v -142.62 h -326.97 c -9.96,0 -19.23,-1.82 -27.84,-5.46 -8.62,-3.65 -16.14,-8.7 -22.62,-15.16 -6.45,-6.46 -11.5,-13.99 -15.14,-22.61 -3.65,-8.62 -5.47,-17.89 -5.47,-27.82 0,-9.94 1.82,-19.31 5.47,-28.09 3.64,-8.77 8.69,-16.39 15.14,-22.85 6.48,-6.46 14,-11.52 22.62,-15.15 8.61,-3.66 17.88,-5.47 27.84,-5.47 h 142.59 c 29.5,0 57.23,-5.55 83.25,-16.65 26,-11.1 48.7,-26.34 68.07,-45.72 19.38,-19.37 34.61,-42.07 45.72,-68.07 11.09,-26.01 16.64,-53.76 16.64,-83.24 0,-29.49 -5.55,-57.14 -16.64,-82.98 -11.11,-25.84 -26.34,-48.45 -45.72,-67.83 -19.37,-19.38 -42.07,-34.71 -68.07,-45.97 -26.02,-11.26 -53.75,-16.89 -83.25,-16.89 H 6991.2 v 142.62 h 316.53 c 9.95,0 19.22,1.81 27.84,5.46 8.61,3.64 16.14,8.7 22.61,15.16 6.46,6.46 11.5,13.99 15.16,22.61 3.64,8.61 5.46,17.89 5.46,27.82 0,9.94 -1.82,19.21 -5.46,27.83 -3.66,8.62 -8.7,16.15 -15.16,22.61 -6.47,6.47 -14,11.51 -22.61,15.16 -8.62,3.64 -17.89,5.46 -27.84,5.46 h -142.59 c -29.5,0 -57.16,5.63 -83,16.9 -25.84,11.25 -48.46,26.58 -67.82,45.97 -19.39,19.37 -34.73,42.06 -45.98,68.07 -11.27,26 -16.89,53.75 -16.89,83.24"
         style="fill:#163057;fill-opacity:1;fill-rule:nonzero;stroke:none"
         id="path863" /><path
         d="m 2547.55,2649.87 c -69.37,-0.01 -138.75,0.08 -208.13,-0.09 -12.52,-0.03 -23.61,3.16 -29,14.89 -5.68,12.36 -6.06,25.55 1.73,37.75 4.84,7.59 12.42,10.81 20.93,12.09 3.17,0.47 6.44,0.37 9.66,0.37 137.41,0.01 274.82,0.02 412.23,-0.01 17.87,0 28.78,-6.26 32.63,-20.52 4.43,-16.4 1.51,-34.54 -13.96,-41.21 -5.45,-2.35 -11.94,-3.11 -17.96,-3.13 -69.38,-0.21 -138.76,-0.14 -208.13,-0.14"
         style="fill:#f68932;fill-opacity:1;fill-rule:nonzero;stroke:none"
         id="path865" /><path
         d="m 2547.6,2608.22 c 60.54,0 121.07,0.01 181.61,-0.01 15.78,0 25.95,-7.57 29.71,-21.94 4.1,-15.69 -1.43,-32 -14.01,-38.61 -4.53,-2.38 -10.22,-3.56 -15.38,-3.57 -121.07,-0.2 -242.14,-0.21 -363.21,-0.11 -18.56,0.02 -29.02,10.76 -28.86,29.13 0.06,6.13 -0.1,12.6 1.74,18.3 3.45,10.77 13.88,16.79 26.79,16.8 60.54,0.04 121.07,0.01 181.61,0.01"
         style="fill:#f68932;fill-opacity:1;fill-rule:nonzero;stroke:none"
         id="path867" /><path
         d="m 2547.43,2506.33 c 44.31,0 88.61,0.02 132.92,-0.01 10.27,0 11.87,-1.31 9.53,-9.87 -8.39,-30.77 -37.59,-53.48 -73.99,-54.2 -45.24,-0.89 -90.52,-0.68 -135.76,-0.06 -36.8,0.51 -70.54,27.42 -75.13,58.1 -1,6.69 3.61,6.06 8.56,6.06 44.63,-0.03 89.25,-0.02 133.87,-0.02"
         style="fill:#f68932;fill-opacity:1;fill-rule:nonzero;stroke:none"
         id="path869" /></g></g></svg>
