<svg xmlns="http://www.w3.org/2000/svg" viewBox="0 0 318.05 62.44"><defs><style>.cls-1{fill:#929295;}.cls-1,.cls-10,.cls-11,.cls-12,.cls-13,.cls-14,.cls-15,.cls-16,.cls-17,.cls-18,.cls-19,.cls-2,.cls-20,.cls-21,.cls-22,.cls-23,.cls-24,.cls-25,.cls-26,.cls-27,.cls-28,.cls-29,.cls-3,.cls-30,.cls-31,.cls-32,.cls-33,.cls-34,.cls-35,.cls-36,.cls-37,.cls-38,.cls-39,.cls-4,.cls-40,.cls-41,.cls-42,.cls-43,.cls-44,.cls-45,.cls-46,.cls-47,.cls-48,.cls-49,.cls-5,.cls-50,.cls-51,.cls-52,.cls-53,.cls-54,.cls-55,.cls-56,.cls-57,.cls-58,.cls-59,.cls-6,.cls-60,.cls-61,.cls-62,.cls-63,.cls-64,.cls-65,.cls-66,.cls-67,.cls-68,.cls-69,.cls-7,.cls-70,.cls-71,.cls-72,.cls-73,.cls-74,.cls-75,.cls-76,.cls-8,.cls-82,.cls-9{fill-rule:evenodd;}.cls-2{fill:#b2b2b4;}.cls-3{fill:#6d6d6f;}.cls-4{fill:#59585a;}.cls-5{fill:#4c4b4d;}.cls-6{fill:#949496;}.cls-7{fill:#969698;}.cls-8{fill:#95969a;}.cls-9{fill:#97979a;}.cls-10{fill:#98989b;}.cls-11{fill:#99999b;}.cls-12{fill:#99999c;}.cls-13{fill:#9a9a9d;}.cls-14{fill:#9a9a9e;}.cls-15{fill:#9b9b9e;}.cls-16{fill:#9d9c9e;}.cls-17{fill:#9d9d9f;}.cls-18{fill:#9d9da1;}.cls-19{fill:#9e9ea0;}.cls-20{fill:#9f9fa1;}.cls-21{fill:#9f9fa2;}.cls-22{fill:#a0a0a2;}.cls-23{fill:#a1a0a3;}.cls-24{fill:#a2a1a4;}.cls-25{fill:#a2a1a5;}.cls-26{fill:#a3a2a4;}.cls-27{fill:#a4a3a6;}.cls-28{fill:#a4a3a7;}.cls-29{fill:#a5a4a7;}.cls-30{fill:#a6a5a8;}.cls-31{fill:#a6a5a9;}.cls-32{fill:#a7a6a9;}.cls-33{fill:#a7a6aa;}.cls-34{fill:#a8a7aa;}.cls-35{fill:#a8a8ab;}.cls-36{fill:#a9a8ac;}.cls-37{fill:#a9a9ac;}.cls-38{fill:#a9a9ad;}.cls-39{fill:#ababae;}.cls-40{fill:#acacaf;}.cls-41{fill:#adacb0;}.cls-42{fill:#aeaeb0;}.cls-43{fill:#afafb2;}.cls-44{fill:#afafb3;}.cls-45{fill:#b0b0b3;}.cls-46{fill:#b0b0b4;}.cls-47{fill:#b1b1b5;}.cls-48{fill:#b2b2b5;}.cls-49{fill:#b2b2b6;}.cls-50{fill:#b3b3b6;}.cls-51{fill:#b3b3b7;}.cls-52{fill:#b3b4b8;}.cls-53{fill:#b4b5b7;}.cls-54{fill:#b4b5b9;}.cls-55{fill:#b5b6ba;}.cls-56{fill:#b6b6b9;}.cls-57{fill:#b6b6bb;}.cls-58{fill:#b7b7bb;}.cls-59{fill:#b8b8bc;}.cls-60{fill:#b9b9bc;}.cls-61{fill:#b9b9bd;}.cls-62{fill:#b9babe;}.cls-63{fill:#babbbe;}.cls-64{fill:#babbbf;}.cls-65{fill:#bbbcc0;}.cls-66{fill:#bcbdc1;}.cls-67{fill:#bebdc1;}.cls-68{fill:#bebdc2;}.cls-69{fill:#bfbec3;}.cls-70{fill:#c1c0c4;}.cls-71{fill:#c2c2c6;}.cls-72{fill:#c3c3c7;}.cls-73{fill:#c4c4c7;}.cls-74{fill:#c4c4c8;}.cls-75{fill:#c6c5c9;}.cls-76{fill:#c7c6ca;}.cls-77,.cls-82{fill:#3680c1;}.cls-78{fill:#6ab22d;}.cls-79{fill:#ffd300;}.cls-80{fill:#e10613;}.cls-81{fill:#f07f1a;}.cls-83{fill:#871e80;}.cls-84{fill:#2d3c4f;}</style></defs><title>Ресурс 49</title><g id="Слой_2" data-name="Слой 2"><g id="_1080" data-name="1080"><path class="cls-1" d="M77.63,60.94c-1.29,0-4-.12-4.06-.52s-.48-.64-1.49-1.25a2.3,2.3,0,0,1-1.32-1.76c0-.45.32-.77-.2-1s-.4-.4,0-.56.16-.44.16-.88.48-.53-.16-.57-.56-.44-.08-.6.2-.44.2-.8.28-.61-.16-.73-.4-.48.12-.6.2-.32.16-.6.36-.65.08-.65-.68-.2-.72-.52l-.45-3.37H85.93l-.32,2.53c0,.32-.44.52-.72.52s.12.36.08.64-.36.49.16.61.56.48.12.6-.16.36-.16.72-.28.64.2.81.57.56-.08.6-.16.12-.16.56-.28.72.16.89.57.36,0,.56-.2.52-.2,1c0,.13.35.27.3.55a4.15,4.15,0,0,1-1.5,2.06c-.77.64-1.41.85-1.49,1.25S78.92,60.94,77.63,60.94Z"/><path class="cls-2" d="M75.4,60.94c-.37,0-1.14-.12-1.16-.52a3.23,3.23,0,0,0-.43-1.25,4.34,4.34,0,0,1-.38-1.76c0-.45.09-.77-.06-1a.44.44,0,0,1,0-.56c.13-.16.05-.44.05-.88s.14-.53-.05-.57-.16-.44,0-.6.06-.44.06-.8.08-.61,0-.73a.48.48,0,0,1,0-.6c.15-.12,0-.32,0-.6s.11-.65,0-.65-.21-.2-.21-.52.07-.52.07-1,0-.93,0-1.25-.1-.82-.12-1.16h4.58a2.38,2.38,0,0,1-.05.6,2.54,2.54,0,0,0-.11,1c0,.44.07.65.07,1s-.13.52-.21.52,0,.36,0,.64-.1.49,0,.61a.48.48,0,0,1,0,.6c-.12.12,0,.36,0,.72s-.08.64.06.81.16.56,0,.6,0,.12,0,.56-.08.72,0,.89a.42.42,0,0,1,0,.56c-.15.2,0,.52,0,1a2.4,2.4,0,0,1,.08.55,7.8,7.8,0,0,1-.43,2.06,5.6,5.6,0,0,0-.43,1.25C76.74,60.82,75.77,60.94,75.4,60.94Z"/><path class="cls-3" d="M78,60.82c1,0,1.85.37,1.85.81s-.83.81-1.85.81-1.85-.36-1.85-.81S76.94,60.82,78,60.82Z"/><path class="cls-4" d="M78,60.08c1.78,0,3.21.4,3.21.89s-1.43.89-3.21.89-3.21-.4-3.21-.89S76.19,60.08,78,60.08Z"/><path class="cls-5" d="M77.65,61.27c-1.18,0-3.65-.11-3.72-.48l-.05-.17a17.92,17.92,0,0,0,3.74.32A23.89,23.89,0,0,0,82,60.6c0,.07,0,.14-.05.19C81.92,61.16,78.83,61.27,77.65,61.27Z"/><path class="cls-3" d="M70.9,51.29l13.94-.66c0,.09,0,.17.29.23a.6.6,0,0,1,.36.18l-15,.7.15,0C71.07,51.61,71,51.47,70.9,51.29Z"/><path class="cls-3" d="M70.25,50.12l15.2-.72a.91.91,0,0,1-.56.21c-.16,0-.1.11,0,.26L71,50.52s0-.07-.1-.07A.86.86,0,0,1,70.25,50.12Z"/><path class="cls-3" d="M70.59,52.31,85,51.63c0,.11,0,.26.07.44l-14.32.67C70.82,52.54,70.87,52.4,70.59,52.31Z"/><path class="cls-3" d="M70.76,53.29,85,52.62c0,.15,0,.28.27.37l.13,0-14.71.69C70.84,53.62,70.8,53.47,70.76,53.29Z"/><path class="cls-3" d="M70.6,54.43l14.31-.67a.68.68,0,0,1,.14.39v0l-14.28.67C70.85,54.54,71.17,54.47,70.6,54.43Z"/><path class="cls-3" d="M70.83,55.45,85,54.78c0,.11.07.19.25.26a1,1,0,0,1,.31.15l-15,.71,0,0C70.87,55.78,70.87,55.64,70.83,55.45Z"/><path class="cls-3" d="M70.71,56.52,85,55.85a.85.85,0,0,0,0,.43L70.83,57C70.87,56.78,70.88,56.63,70.71,56.52Z"/><path class="cls-3" d="M77.63,60.94c-1.29,0-4-.12-4.06-.52s-.48-.64-1.49-1.25A3,3,0,0,1,70.93,58l14.35-.67a4.81,4.81,0,0,1-1.43,1.8c-.77.64-1.41.85-1.49,1.25S78.92,60.94,77.63,60.94Z"/><path class="cls-1" d="M75,60.81a6.78,6.78,0,0,0-.84-1.61,8.92,8.92,0,0,1-.63-1.28l4.09-.19c0,.51.06,1,.05,1.47a7.38,7.38,0,0,0,0,1.66.25.25,0,0,1,0,.08A25.27,25.27,0,0,1,75,60.81Z"/><path class="cls-1" d="M80,46.56h5.89l-.32,2.53c0,.32-.44.52-.72.52l-4.84,0Z"/><path class="cls-6" d="M80.11,46.56h5.82l-.32,2.53c0,.31-.43.51-.71.52l-4.78,0Z"/><path class="cls-6" d="M80.18,46.56h5.75l-.32,2.53c0,.31-.43.51-.71.51H80.19C80.19,48.59,80.18,47.58,80.18,46.56Z"/><path class="cls-7" d="M80.25,46.56h5.68l-.32,2.53c0,.31-.42.51-.7.51H80.26C80.26,48.58,80.25,47.57,80.25,46.56Z"/><path class="cls-8" d="M80.32,46.56h5.61l-.32,2.53c0,.31-.42.5-.69.51l-4.59,0Z"/><path class="cls-9" d="M80.39,46.56h5.54l-.32,2.53c0,.3-.42.5-.69.51l-4.53-.05Z"/><path class="cls-10" d="M80.46,46.56h5.47l-.32,2.53c0,.3-.41.5-.68.5l-4.47-.06Z"/><path class="cls-10" d="M80.53,46.56h5.4l-.32,2.53c0,.3-.41.49-.67.5l-4.41-.08Z"/><path class="cls-11" d="M80.6,46.56h5.33l-.32,2.53c0,.3-.4.49-.67.5l-4.34-.1Z"/><path class="cls-12" d="M80.67,46.56h5.26l-.32,2.53c0,.29-.4.49-.66.5l-4.28-.12Z"/><path class="cls-12" d="M80.74,46.56h5.19l-.32,2.53c0,.29-.39.48-.65.49l-4.23-.13C80.74,48.48,80.74,47.52,80.74,46.56Z"/><path class="cls-13" d="M80.81,46.56h5.12l-.32,2.53c0,.29-.39.48-.65.49l-4.16-.15Z"/><path class="cls-14" d="M80.88,46.56h5.05l-.32,2.53c0,.29-.39.47-.64.49l-4.1-.17C80.87,48.46,80.88,47.51,80.88,46.56Z"/><path class="cls-15" d="M81,46.56h5l-.32,2.53c0,.29-.38.47-.63.49l-4-.19C80.94,48.44,81,47.5,81,46.56Z"/><path class="cls-16" d="M81,46.56h4.91l-.32,2.53c0,.28-.38.47-.63.48l-4-.2C81,48.43,81,47.49,81,46.56Z"/><path class="cls-16" d="M81.09,46.56h4.84l-.32,2.53c0,.28-.37.46-.62.48l-3.91-.23C81.08,48.42,81.08,47.49,81.09,46.56Z"/><path class="cls-17" d="M81.16,46.56h4.77l-.32,2.53c0,.28-.37.46-.61.48l-3.86-.25C81.15,48.4,81.15,47.48,81.16,46.56Z"/><path class="cls-18" d="M81.23,46.56h4.7l-.32,2.53c0,.28-.36.46-.61.48l-3.79-.27C81.22,48.39,81.22,47.47,81.23,46.56Z"/><path class="cls-19" d="M81.3,46.56h4.63l-.32,2.53c0,.27-.36.45-.6.47l-3.73-.28C81.29,48.37,81.29,47.47,81.3,46.56Z"/><path class="cls-20" d="M81.37,46.56h4.56l-.32,2.53a.64.64,0,0,1-.59.47l-3.67-.3Z"/><path class="cls-21" d="M81.44,46.56h4.49l-.32,2.53a.64.64,0,0,1-.59.47l-3.6-.32C81.42,48.35,81.43,47.45,81.44,46.56Z"/><path class="cls-22" d="M81.51,46.56h4.42l-.32,2.53c0,.27-.35.44-.58.47l-3.55-.34Z"/><path class="cls-23" d="M81.58,46.56h4.35l-.32,2.53a.63.63,0,0,1-.57.46l-3.49-.35Z"/><path class="cls-23" d="M81.65,46.56h4.28l-.32,2.53a.63.63,0,0,1-.57.46l-3.42-.37Z"/><path class="cls-24" d="M81.72,46.56h4.21l-.32,2.53c0,.26-.33.43-.56.46l-3.36-.39Z"/><path class="cls-25" d="M81.79,46.56h4.14l-.32,2.53a.63.63,0,0,1-.55.46l-3.3-.41Z"/><path class="cls-26" d="M81.86,46.56h4.07l-.32,2.53a.61.61,0,0,1-.55.45l-3.24-.42Z"/><path class="cls-27" d="M81.93,46.56h4l-.32,2.53a.62.62,0,0,1-.54.45l-3.18-.44C81.9,48.25,81.92,47.4,81.93,46.56Z"/><path class="cls-28" d="M82,46.56h3.93l-.32,2.53a.62.62,0,0,1-.53.45L82,49.08C82,48.24,82,47.4,82,46.56Z"/><path class="cls-29" d="M82.07,46.56h3.86l-.32,2.53c0,.25-.31.41-.53.45l-3-.48Z"/><path class="cls-30" d="M82.14,46.56h3.79l-.32,2.53a.61.61,0,0,1-.52.44l-3-.5C82.11,48.21,82.12,47.38,82.14,46.56Z"/><path class="cls-31" d="M82.21,46.56h3.72l-.32,2.53a.6.6,0,0,1-.51.44L82.16,49Z"/><path class="cls-32" d="M82.28,46.56h3.65l-.32,2.53a.61.61,0,0,1-.51.44L82.23,49C82.25,48.18,82.26,47.37,82.28,46.56Z"/><path class="cls-33" d="M82.35,46.56h3.58l-.32,2.53a.6.6,0,0,1-.5.44L82.3,49C82.32,48.17,82.33,47.36,82.35,46.56Z"/><path class="cls-34" d="M82.42,46.56h3.51l-.32,2.53a.58.58,0,0,1-.49.43L82.37,49Z"/><path class="cls-35" d="M82.49,46.56h3.44l-.32,2.53c0,.23-.28.39-.49.43l-2.68-.59C82.45,48.14,82.47,47.35,82.49,46.56Z"/><path class="cls-36" d="M82.56,46.56h3.37l-.32,2.53c0,.23-.28.39-.48.43l-2.63-.61Z"/><path class="cls-37" d="M82.63,46.56h3.3l-.32,2.53c0,.23-.28.39-.47.43l-2.57-.63Z"/><path class="cls-38" d="M82.7,46.56h3.23l-.32,2.53c0,.23-.27.38-.47.42l-2.5-.64Z"/><path class="cls-39" d="M82.77,46.56h3.16l-.32,2.53c0,.22-.27.38-.46.42l-2.44-.66Z"/><path class="cls-40" d="M82.84,46.56h3.09l-.32,2.53a.56.56,0,0,1-.45.42l-2.38-.68Z"/><path class="cls-41" d="M82.91,46.56h3l-.32,2.53c0,.22-.26.37-.45.42l-2.32-.7C82.87,48.06,82.89,47.31,82.91,46.56Z"/><path class="cls-42" d="M83,46.56h3l-.32,2.53a.53.53,0,0,1-.44.41l-2.26-.71Z"/><path class="cls-43" d="M83.05,46.56h2.88l-.32,2.53c0,.21-.25.36-.43.41L83,48.77C83,48,83,47.29,83.05,46.56Z"/><path class="cls-44" d="M83.12,46.56h2.81l-.32,2.53c0,.21-.25.36-.43.41l-2.13-.75Z"/><path class="cls-45" d="M83.19,46.56h2.74l-.32,2.53a.55.55,0,0,1-.42.41l-2.07-.78C83.14,48,83.17,47.28,83.19,46.56Z"/><path class="cls-46" d="M83.26,46.56h2.67l-.32,2.53c0,.21-.24.35-.41.4l-2-.79C83.21,48,83.23,47.27,83.26,46.56Z"/><path class="cls-47" d="M83.33,46.56h2.6l-.32,2.53a.54.54,0,0,1-.41.4l-2-.81Z"/><path class="cls-48" d="M83.4,46.56h2.53l-.32,2.53a.54.54,0,0,1-.4.4l-1.89-.83C83.35,48,83.37,47.26,83.4,46.56Z"/><path class="cls-49" d="M83.47,46.56h2.46l-.32,2.53a.55.55,0,0,1-.39.4l-1.83-.85Z"/><path class="cls-50" d="M83.54,46.56h2.39l-.32,2.53a.52.52,0,0,1-.39.39l-1.76-.86C83.48,47.93,83.51,47.25,83.54,46.56Z"/><path class="cls-51" d="M83.61,46.56h2.32l-.32,2.53a.52.52,0,0,1-.38.39l-1.7-.88Z"/><path class="cls-52" d="M83.68,46.56h2.25l-.32,2.53a.54.54,0,0,1-.37.39l-1.65-.9Z"/><path class="cls-53" d="M83.75,46.56h2.18l-.32,2.53a.54.54,0,0,1-.37.39l-1.58-.92Z"/><path class="cls-54" d="M83.82,46.56h2.11l-.32,2.53a.5.5,0,0,1-.36.38l-1.52-.93Z"/><path class="cls-55" d="M83.89,46.56h2l-.32,2.53a.52.52,0,0,1-.35.38l-1.46-.95Z"/><path class="cls-56" d="M84,46.56h2l-.32,2.53a.52.52,0,0,1-.35.38l-1.39-1Z"/><path class="cls-57" d="M84,46.56h1.9l-.32,2.53a.52.52,0,0,1-.34.38l-1.34-1C84,47.84,84,47.2,84,46.56Z"/><path class="cls-58" d="M84.1,46.56h1.83l-.32,2.53a.5.5,0,0,1-.33.37l-1.28-1C84,47.82,84.07,47.19,84.1,46.56Z"/><path class="cls-58" d="M84.17,46.56h1.76l-.32,2.53a.5.5,0,0,1-.33.37l-1.21-1Z"/><path class="cls-59" d="M84.24,46.56h1.69l-.32,2.53a.54.54,0,0,1-.32.37l-1.15-1.05C84.17,47.8,84.21,47.18,84.24,46.56Z"/><path class="cls-60" d="M84.31,46.56h1.62l-.32,2.53a.53.53,0,0,1-.31.37l-1.09-1.07C84.24,47.78,84.27,47.17,84.31,46.56Z"/><path class="cls-61" d="M84.38,46.56h1.55l-.32,2.53a.49.49,0,0,1-.31.36l-1-1.08C84.31,47.77,84.34,47.16,84.38,46.56Z"/><path class="cls-62" d="M84.45,46.56h1.48l-.32,2.53a.5.5,0,0,1-.3.36l-1-1.1C84.38,47.75,84.41,47.16,84.45,46.56Z"/><path class="cls-63" d="M84.52,46.56h1.41l-.32,2.53a.52.52,0,0,1-.3.36l-.9-1.12Z"/><path class="cls-64" d="M84.59,46.56h1.34l-.32,2.53a.47.47,0,0,1-.29.35l-.84-1.13C84.52,47.73,84.55,47.14,84.59,46.56Z"/><path class="cls-65" d="M84.66,46.56h1.27l-.32,2.53a.5.5,0,0,1-.28.35l-.78-1.15C84.58,47.71,84.62,47.14,84.66,46.56Z"/><path class="cls-65" d="M84.73,46.56h1.2l-.32,2.53a.47.47,0,0,1-.28.35l-.72-1.17Z"/><path class="cls-66" d="M84.8,46.56h1.13l-.32,2.53a.5.5,0,0,1-.27.35l-.66-1.19Z"/><path class="cls-67" d="M84.87,46.56h1.06l-.32,2.53a.47.47,0,0,1-.26.34l-.6-1.2Z"/><path class="cls-68" d="M84.94,46.56h1l-.32,2.53a.45.45,0,0,1-.26.34c-.17-.41-.35-.81-.53-1.22Z"/><path class="cls-69" d="M85,46.56h.92l-.32,2.53a.46.46,0,0,1-.25.34c-.16-.41-.31-.83-.47-1.24Z"/><path class="cls-69" d="M85.08,46.56h.85l-.32,2.53a.49.49,0,0,1-.24.34c-.14-.42-.28-.84-.41-1.26Z"/><path class="cls-70" d="M85.15,46.56h.78l-.32,2.53a.45.45,0,0,1-.24.33c-.11-.42-.23-.85-.35-1.27C85.06,47.62,85.11,47.09,85.15,46.56Z"/><path class="cls-71" d="M85.22,46.56h.71l-.32,2.53a.44.44,0,0,1-.23.33c-.1-.43-.19-.86-.29-1.29Z"/><path class="cls-71" d="M85.29,46.56h.64l-.32,2.53a.47.47,0,0,1-.22.33l-.23-1.32C85.2,47.59,85.25,47.07,85.29,46.56Z"/><path class="cls-72" d="M85.36,46.56h.57l-.32,2.53a.47.47,0,0,1-.22.33c0-.45-.11-.89-.16-1.34Z"/><path class="cls-73" d="M85.43,46.56h.5l-.32,2.53a.46.46,0,0,1-.21.32c0-.45-.07-.9-.1-1.35S85.38,47.06,85.43,46.56Z"/><path class="cls-74" d="M85.5,46.56h.43l-.32,2.53a.48.48,0,0,1-.2.32c0-.45,0-.91,0-1.37S85.45,47.05,85.5,46.56Z"/><path class="cls-75" d="M85.57,46.56h.36l-.32,2.53a.45.45,0,0,1-.2.32c0-.46,0-.93,0-1.39Z"/><path class="cls-75" d="M85.64,46.56h.29l-.32,2.53a.49.49,0,0,1-.19.32L85.5,48C85.55,47.52,85.59,47,85.64,46.56Z"/><path class="cls-76" d="M85.71,46.56h.22l-.32,2.53a.46.46,0,0,1-.18.31Z"/><path class="cls-77" d="M64.81,16.23s.32,0,.63-.51L67,13.08a.57.57,0,0,1-.05-.5l-.06,0,.69-1.16.06,0s0,0,0,0c.21-.34,1.07-.2,1.92.31s1.39,1.2,1.19,1.54l0,0,0,0-.69,1.16,0,0c-.11.12-.29.19-.67.09-.33.57-1.31,2.21-1.56,2.63a.75.75,0,0,0,0,.85c.37.7,1.63,6.19-.45,6.37-1.87.17-4-1.17-4.47-1.45a10.58,10.58,0,0,1-2.4-1.8l.43-.72a6.6,6.6,0,0,0,1,.82h0a4.84,4.84,0,0,1-.87-1.12l1.36-2.28A13.44,13.44,0,0,1,64,17.21a13.14,13.14,0,0,0-1.39.29l.53-.88A7.46,7.46,0,0,1,64.81,16.23Zm-4.35,4.89a4.69,4.69,0,0,1-1-1.44c-.58-1.34,1.88-2.49,3.68-3.06l-.53.88a4,4,0,0,0-2.28,1.25c-.32.56.07,1.17.55,1.65l-.43.72Zm2-3.3A3.27,3.27,0,0,0,61,19a1.28,1.28,0,0,0,.12,1.15Z"/><path class="cls-78" d="M76.72,0C78,0,79,2.53,79,5.66s-1,5.66-2.31,5.66h0V10.4h0c1.07,0,1.93-2.12,1.93-4.74S77.79.92,76.72.92h0V0Zm0,11.32c-1.27,0-2.3-2.53-2.3-5.66S75.45,0,76.72,0V.92C75.66.92,74.79,3,74.79,5.66s.87,4.74,1.93,4.74Z"/><path class="cls-78" d="M76.72,3.58h0c3.46,0,6.26.93,6.26,2.08s-2.8,2.09-6.26,2.09h0V7.41h0c2.9,0,5.24-.78,5.24-1.75h0c0-1-2.34-1.75-5.24-1.75h0ZM70.47,5.66c0-1.15,2.8-2.08,6.25-2.08v.33c-2.89,0-5.23.79-5.23,1.75s2.34,1.75,5.23,1.75v.34C73.27,7.75,70.47,6.81,70.47,5.66Z"/><path class="cls-78" d="M76.72,2.89a14.73,14.73,0,0,1,1.63,1.3c2.45,2.21,3.7,4.66,2.8,5.47-.7.64-2.51.09-4.43-1.23V8c1.61,1.11,3.12,1.56,3.71,1h0c.75-.68-.3-2.73-2.34-4.58a13.34,13.34,0,0,0-1.37-1.09ZM72.3,1.66c.7-.64,2.51-.09,4.42,1.23v.45c-1.6-1.1-3.11-1.56-3.7-1C72.27,3,73.31,5,75.36,6.9A14.27,14.27,0,0,0,76.72,8v.45a16.7,16.7,0,0,1-1.63-1.29C72.65,4.93,71.4,2.47,72.3,1.66Z"/><path class="cls-78" d="M76.72,2.89C78.64,1.57,80.45,1,81.15,1.66c.9.81-.35,3.27-2.8,5.48a14.61,14.61,0,0,1-1.63,1.29V8A13.21,13.21,0,0,0,78.09,6.9C80.13,5,81.18,3,80.43,2.31h0c-.59-.53-2.1-.07-3.71,1ZM72.3,9.66c-.9-.81.35-3.26,2.79-5.47a16.85,16.85,0,0,1,1.63-1.3v.45a14.42,14.42,0,0,0-1.36,1.09C73.31,6.28,72.27,8.33,73,9c.59.53,2.1.07,3.7-1v.45C74.81,9.75,73,10.3,72.3,9.66Z"/><path class="cls-78" d="M75.75,5.66a1,1,0,0,1,1.93,0,1,1,0,0,1-1.93,0Z"/><path class="cls-79" d="M66.8,26.89l1,1.85L65.12,27.5h0l2.16,4.13,1.57-.83.6,1.14L67,33.24l-4.5-8.58Zm2,3.91L70.42,30l-2.65-1.24-1-1.85L73,30.09l-3.54,1.85Z"/><rect class="cls-79" x="62.21" y="22.65" width="1.48" height="11.66" transform="translate(-5.98 33.22) rotate(-28.28)"/><path class="cls-78" d="M69.64,33.63a4.55,4.55,0,0,0-2,3.76,4.78,4.78,0,0,0,4.89,4.66,5,5,0,0,0,3.91-1.85l.5.38a5.64,5.64,0,0,1-4.41,2.08A5.42,5.42,0,0,1,67,37.39a5.21,5.21,0,0,1,2.27-4.26Z"/><path class="cls-78" d="M72.47,33.3a4.19,4.19,0,1,1,0,8.36h0v-.19h0a4,4,0,1,0,0-8h0V33.3Zm0,8.36a4.19,4.19,0,1,1,0-8.36v.19a4,4,0,1,0,0,8Z"/><path class="cls-78" d="M73.09,33.49a4.47,4.47,0,0,1,2.49,1.28S74.8,34,74.33,34l-.11,0,0,.05a.28.28,0,0,1,.08.11v.08l0,.05s0,0,0,0a.06.06,0,0,1,0,.05.38.38,0,0,1,0,.08v.08l0,.05.06,0h.11a.14.14,0,0,0,0-.08l-.09-.05s0,0,0,0,0-.06.06,0a.37.37,0,0,1,.12.07l.07,0s0,.09,0,.09l0,0a.2.2,0,0,0,0,0,.2.2,0,0,0,0,.07.07.07,0,0,0,.07,0l.12,0a.17.17,0,0,1,.1,0s0,0,0,0l.11.07,0,0a.62.62,0,0,0,0,.1.18.18,0,0,0,.1,0l.08,0,0,.07a.38.38,0,0,1,.09.08,1.11,1.11,0,0,0,.15.12s.06,0,.08.08,0,.1,0,.12a.18.18,0,0,1,0,.11.23.23,0,0,0,0,.1l.07,0,.13,0a.12.12,0,0,1,0,.08l-.06,0H76.1v.09s0,.09,0,.09H76l-.08,0-.07,0,0,0a.1.1,0,0,0,0,.06s0,0,0,0,0,0,0,0,0-.05,0-.06.07,0,.09,0l.06,0s0,0,0,0,0-.06,0-.08,0-.06.06-.06,0,0,0,0,0-.06.07,0,0,0,0,0,0-.08,0-.1,0-.06,0-.08,0-.14,0-.14a1.91,1.91,0,0,1,.18.45s-.05,0-.05,0,0,.07,0,.1,0,0,0,.13,0,.12,0,.16,0,.07,0,.11a.54.54,0,0,1,0,.15l0,0s0,.09,0,0l-.07-.11,0,0s0-.05-.07,0-.08,0-.09,0,0,.09,0,.09-.14,0-.16,0-.06,0-.08.06,0,.11-.06.12,0,.07,0,.11-.11.06-.13.06l-.14,0s0,.06,0,.07-.07.11-.07.11a.38.38,0,0,0,0,.12.05.05,0,0,1,0,.08h-.12s0,.07,0,.09a1.1,1.1,0,0,0-.17.07s0,.07,0,.06-.17,0-.21,0,0,.08-.11.14l-.17.09s-.08,0-.07.08,0,.13.07.16a1,1,0,0,1,.12.17.12.12,0,0,1,0,.14.39.39,0,0,0-.06.14s0,.13,0,.16l.07.11s-.08.06,0,.11a.53.53,0,0,0,.17.12.46.46,0,0,1,.12.09,1.18,1.18,0,0,0,0,.19s.16.28.11.34a.16.16,0,0,0,0,.16s0,0,0,.07.11,0,0,.09-.09.11-.12.16,0,.07-.06.12a.76.76,0,0,1-.11.14s-.1.07-.1.11-.1.15,0,.07a.69.69,0,0,0,.17-.13c.15-.12.19-.07.26-.14s0,.19.1-.13a1,1,0,0,1,.19-.35c0-.07,0,0,.1-.16s0,0,.1-.16.08,0,.12-.14,0-.07.1-.28,0-.21.08-.32.12,0,.16-.12a.78.78,0,0,1,.09-.18c.11-.18.26-.25.25-.56s0-.36,0-.36a.3.3,0,0,0,.11-.3c0-.18-.07-.12,0-.18s0,0,.09-.11.06-.06.07-.11a.82.82,0,0,0,0-.14l0,0a4.2,4.2,0,0,1-3.8,4.63s1-.2,1.06-.38c0,0,0-.17,0-.17s-.1,0-.16,0l-.13-.11V41l-.14,0c-.19,0-.19,0-.26,0s-.15-.17-.19-.08,0,0,0,.08a.46.46,0,0,1-.26,0,1.18,1.18,0,0,1-.32,0s0-.07-.08-.06-.08.08-.08.08l.16.09.15.1s.07,0,0,0a.41.41,0,0,1-.16,0c-.07,0-.24.14-.28.06L72,41.09s0-.1-.1-.1l-.14,0,.06.12h-.17s-.06.08-.13,0a.21.21,0,0,0-.15-.07,1,1,0,0,0-.2,0l-.12,0s-.18.1-.21.08a.79.79,0,0,0-.21,0,2.5,2.5,0,0,0,1.54.45,4.29,4.29,0,0,1-3.66-2.07c-1.32-2.17-.4-5,2.6-5.92a4.82,4.82,0,0,0-2.84,2.84l0,0c.06-.06.06,0,.11-.13s0-.07,0-.14,0,0,.08-.09.06-.05.1-.09.08-.17.11-.2.12-.05.17-.06,0-.06,0,0-.07.12-.07.12V36a.93.93,0,0,0-.06.18.53.53,0,0,0,0,.14s0,.12.07.14a1.76,1.76,0,0,0,.27.05.8.8,0,0,0,.11-.14c0-.07.17-.09.19-.11s0-.09,0-.17,0-.06.08-.12l.08-.07s.18-.06.12,0,0,.2,0,.21-.08,0-.12.06a.63.63,0,0,1-.08.15s0,.15-.08.16-.15,0-.14.05.07.12,0,.14-.08,0-.12,0,0,0-.09,0a.69.69,0,0,0-.16,0s-.08.06-.08.09S69,37,69,37l.09.17s0,.28,0,.28.11.13.14.15,0,.21,0,.21l.09.1a1.18,1.18,0,0,1,0,.19.71.71,0,0,0,0,.26.38.38,0,0,0,.13.16s-.15.13-.07.15a.41.41,0,0,1,.18.16s0,.09.06.1.14,0,.14,0v.14l.16.22.19.15s0,.11,0,.12a2.09,2.09,0,0,1,.3.11.6.6,0,0,0,.23.1s0,.13,0,0,0,0,.09-.2.07,0,.07-.15,0,0,0-.12,0,0,0-.15,0-.09.13-.17.14,0,.09-.12,0,0,0-.12,0-.15-.07-.21-.15-.06-.14-.14a.49.49,0,0,1,0-.15s.1-.13.11-.16l.07-.09.1-.14s0-.2,0-.27,0,0,0-.08a1.87,1.87,0,0,1,0-.2s.15-.1.21-.09,0,.1.14,0,.07-.11.1-.13a.12.12,0,0,1,.14,0s.16,0,.26.07a.45.45,0,0,0,.24,0c.12,0,.26,0,.35,0s.1,0,.14-.07,0-.09.09-.14S73,37,73,37s0-.07,0-.15l.07-.07c.11-.12.15,0,.11-.12s-.07,0-.07-.15-.18,0-.07-.18.13-.19,0-.36a1.39,1.39,0,0,0-.25-.27.54.54,0,0,0-.1-.16s0-.06-.1,0a.36.36,0,0,1-.25-.08c-.06-.06-.14-.15-.18-.16s0,0-.11,0a.74.74,0,0,0-.18,0c-.06,0,.07,0-.11,0l-.17,0-.09,0c-.07,0-.06-.13-.07,0s.06.21-.06.22h-.12c-.12,0-.09,0-.15,0s-.09.07-.18.07,0,.12-.09,0,.1-.14-.13-.13-.27.07-.31,0,0,0-.15,0-.11,0-.15,0,0,.11-.08,0-.12,0,0-.11.16,0,.18-.07-.1-.06,0-.08a.49.49,0,0,0,.19,0c.1,0,.19.08.22,0s.2,0,0-.09-.1-.2-.22-.17-.08.12-.15.07-.2-.1-.07-.19a.64.64,0,0,1,.18-.1c.13-.06.25.22.31.18s.09-.07.13,0,0,.13,0,.2-.07.1.06,0-.14,0,.15-.13.39-.08.43,0,.1,0,.13.06-.09.09,0,0a.22.22,0,0,1,.24,0,.1.1,0,0,1,.1,0,.27.27,0,0,0,.21,0c.06,0,.19,0,.08-.11s0-.06-.2-.13-.43-.08-.21-.12-.12,0,.18-.18.3,0,.29-.14,0-.19.08-.18l.31.06c.07,0,0,.06.12,0s.18,0,.13-.08a.43.43,0,0,0-.14-.2c-.08-.07-.06-.32-.26-.22s-.12.07-.28.08-.23,0-.23-.05.18-.12.18-.12.06,0,0,0l-.06-.08.06,0A6.67,6.67,0,0,1,73.09,33.49Z"/><path class="cls-78" d="M72.81,42.53v1a1.57,1.57,0,0,0,.84.68c.58.19,1.12.49,1.07.78s-.75.55-2.79.55V42.34Z"/><path class="cls-78" d="M71.64,42.53v1a1.35,1.35,0,0,1-.79.68c-.59.19-1.29.49-1.24.78s1.15.55,2.61.55V42.34Z"/><path class="cls-78" d="M69.64,33.63a4.55,4.55,0,0,0-2,3.76,4.78,4.78,0,0,0,4.89,4.66,5,5,0,0,0,3.91-1.85l.5.38a5.64,5.64,0,0,1-4.41,2.08A5.42,5.42,0,0,1,67,37.39a5.21,5.21,0,0,1,2.27-4.26Z"/><path class="cls-78" d="M72.47,33.3a4.19,4.19,0,1,1,0,8.36h0v-.19h0a4,4,0,1,0,0-8h0V33.3Zm0,8.36a4.19,4.19,0,1,1,0-8.36v.19a4,4,0,1,0,0,8Z"/><path class="cls-78" d="M73.09,33.49a4.47,4.47,0,0,1,2.49,1.28S74.8,34,74.33,34l-.11,0,0,.05a.28.28,0,0,1,.08.11v.08l0,.05s0,0,0,0a.06.06,0,0,1,0,.05.38.38,0,0,1,0,.08v.08l0,.05.06,0h.11a.14.14,0,0,0,0-.08l-.09-.05s0,0,0,0,0-.06.06,0a.37.37,0,0,1,.12.07l.07,0s0,.09,0,.09l0,0a.2.2,0,0,0,0,0,.2.2,0,0,0,0,.07.07.07,0,0,0,.07,0l.12,0a.17.17,0,0,1,.1,0s0,0,0,0l.11.07,0,0a.62.62,0,0,0,0,.1.18.18,0,0,0,.1,0l.08,0,0,.07a.38.38,0,0,1,.09.08,1.11,1.11,0,0,0,.15.12s.06,0,.08.08,0,.1,0,.12a.18.18,0,0,1,0,.11.23.23,0,0,0,0,.1l.07,0,.13,0a.12.12,0,0,1,0,.08l-.06,0H76.1v.09s0,.09,0,.09H76l-.08,0-.07,0,0,0a.1.1,0,0,0,0,.06s0,0,0,0,0,0,0,0,0-.05,0-.06.07,0,.09,0l.06,0s0,0,0,0,0-.06,0-.08,0-.06.06-.06,0,0,0,0,0-.06.07,0,0,0,0,0,0-.08,0-.1,0-.06,0-.08,0-.14,0-.14a1.91,1.91,0,0,1,.18.45s-.05,0-.05,0,0,.07,0,.1,0,0,0,.13,0,.12,0,.16,0,.07,0,.11a.54.54,0,0,1,0,.15l0,0s0,.09,0,0l-.07-.11,0,0s0-.05-.07,0-.08,0-.09,0,0,.09,0,.09-.14,0-.16,0-.06,0-.08.06,0,.11-.06.12,0,.07,0,.11-.11.06-.13.06l-.14,0s0,.06,0,.07-.07.11-.07.11a.38.38,0,0,0,0,.12.05.05,0,0,1,0,.08h-.12s0,.07,0,.09a1.1,1.1,0,0,0-.17.07s0,.07,0,.06-.17,0-.21,0,0,.08-.11.14l-.17.09s-.08,0-.07.08,0,.13.07.16a1,1,0,0,1,.12.17.12.12,0,0,1,0,.14.39.39,0,0,0-.06.14s0,.13,0,.16l.07.11s-.08.06,0,.11a.53.53,0,0,0,.17.12.46.46,0,0,1,.12.09,1.18,1.18,0,0,0,0,.19s.16.28.11.34a.16.16,0,0,0,0,.16s0,0,0,.07.11,0,0,.09-.09.11-.12.16,0,.07-.06.12a.76.76,0,0,1-.11.14s-.1.07-.1.11-.1.15,0,.07a.69.69,0,0,0,.17-.13c.15-.12.19-.07.26-.14s0,.19.1-.13a1,1,0,0,1,.19-.35c0-.07,0,0,.1-.16s0,0,.1-.16.08,0,.12-.14,0-.07.1-.28,0-.21.08-.32.12,0,.16-.12a.78.78,0,0,1,.09-.18c.11-.18.26-.25.25-.56s0-.36,0-.36a.3.3,0,0,0,.11-.3c0-.18-.07-.12,0-.18s0,0,.09-.11.06-.06.07-.11a.82.82,0,0,0,0-.14l0,0a4.2,4.2,0,0,1-3.8,4.63s1-.2,1.06-.38c0,0,0-.17,0-.17s-.1,0-.16,0l-.13-.11V41l-.14,0c-.19,0-.19,0-.26,0s-.15-.17-.19-.08,0,0,0,.08a.46.46,0,0,1-.26,0,1.18,1.18,0,0,1-.32,0s0-.07-.08-.06-.08.08-.08.08l.16.09.15.1s.07,0,0,0a.41.41,0,0,1-.16,0c-.07,0-.24.14-.28.06L72,41.09s0-.1-.1-.1l-.14,0,.06.12h-.17s-.06.08-.13,0a.21.21,0,0,0-.15-.07,1,1,0,0,0-.2,0l-.12,0s-.18.1-.21.08a.79.79,0,0,0-.21,0,2.5,2.5,0,0,0,1.54.45,4.29,4.29,0,0,1-3.66-2.07c-1.32-2.17-.4-5,2.6-5.92a4.82,4.82,0,0,0-2.84,2.84l0,0c.06-.06.06,0,.11-.13s0-.07,0-.14,0,0,.08-.09.06-.05.1-.09.08-.17.11-.2.12-.05.17-.06,0-.06,0,0-.07.12-.07.12V36a.93.93,0,0,0-.06.18.53.53,0,0,0,0,.14s0,.12.07.14a1.76,1.76,0,0,0,.27.05.8.8,0,0,0,.11-.14c0-.07.17-.09.19-.11s0-.09,0-.17,0-.06.08-.12l.08-.07s.18-.06.12,0,0,.2,0,.21-.08,0-.12.06a.63.63,0,0,1-.08.15s0,.15-.08.16-.15,0-.14.05.07.12,0,.14-.08,0-.12,0,0,0-.09,0a.69.69,0,0,0-.16,0s-.08.06-.08.09S69,37,69,37l.09.17s0,.28,0,.28.11.13.14.15,0,.21,0,.21l.09.1a1.18,1.18,0,0,1,0,.19.71.71,0,0,0,0,.26.38.38,0,0,0,.13.16s-.15.13-.07.15a.41.41,0,0,1,.18.16s0,.09.06.1.14,0,.14,0v.14l.16.22.19.15s0,.11,0,.12a2.09,2.09,0,0,1,.3.11.6.6,0,0,0,.23.1s0,.13,0,0,0,0,.09-.2.07,0,.07-.15,0,0,0-.12,0,0,0-.15,0-.09.13-.17.14,0,.09-.12,0,0,0-.12,0-.15-.07-.21-.15-.06-.14-.14a.49.49,0,0,1,0-.15s.1-.13.11-.16l.07-.09.1-.14s0-.2,0-.27,0,0,0-.08a1.87,1.87,0,0,1,0-.2s.15-.1.21-.09,0,.1.14,0,.07-.11.1-.13a.12.12,0,0,1,.14,0s.16,0,.26.07a.45.45,0,0,0,.24,0c.12,0,.26,0,.35,0s.1,0,.14-.07,0-.09.09-.14S73,37,73,37s0-.07,0-.15l.07-.07c.11-.12.15,0,.11-.12s-.07,0-.07-.15-.18,0-.07-.18.13-.19,0-.36a1.39,1.39,0,0,0-.25-.27.54.54,0,0,0-.1-.16s0-.06-.1,0a.36.36,0,0,1-.25-.08c-.06-.06-.14-.15-.18-.16s0,0-.11,0a.74.74,0,0,0-.18,0c-.06,0,.07,0-.11,0l-.17,0-.09,0c-.07,0-.06-.13-.07,0s.06.21-.06.22h-.12c-.12,0-.09,0-.15,0s-.09.07-.18.07,0,.12-.09,0,.1-.14-.13-.13-.27.07-.31,0,0,0-.15,0-.11,0-.15,0,0,.11-.08,0-.12,0,0-.11.16,0,.18-.07-.1-.06,0-.08a.49.49,0,0,0,.19,0c.1,0,.19.08.22,0s.2,0,0-.09-.1-.2-.22-.17-.08.12-.15.07-.2-.1-.07-.19a.64.64,0,0,1,.18-.1c.13-.06.25.22.31.18s.09-.07.13,0,0,.13,0,.2-.07.1.06,0-.14,0,.15-.13.39-.08.43,0,.1,0,.13.06-.09.09,0,0a.22.22,0,0,1,.24,0,.1.1,0,0,1,.1,0,.27.27,0,0,0,.21,0c.06,0,.19,0,.08-.11s0-.06-.2-.13-.43-.08-.21-.12-.12,0,.18-.18.3,0,.29-.14,0-.19.08-.18l.31.06c.07,0,0,.06.12,0s.18,0,.13-.08a.43.43,0,0,0-.14-.2c-.08-.07-.06-.32-.26-.22s-.12.07-.28.08-.23,0-.23-.05.18-.12.18-.12.06,0,0,0l-.06-.08.06,0A6.67,6.67,0,0,1,73.09,33.49Z"/><path class="cls-79" d="M95.53,17.28a2.35,2.35,0,0,1,1.81,2.65,2.31,2.31,0,0,1-2.82,1.67l-.12,0,.1-.4.1,0h0a1.87,1.87,0,0,0,2.29-1.35,1.9,1.9,0,0,0-1.46-2.16Zm-.12,0,.12,0-.1.4-.1,0A1.87,1.87,0,0,0,93,19a1.9,1.9,0,0,0,1.46,2.16l-.1.4a2.35,2.35,0,0,1-1.81-2.65A2.31,2.31,0,0,1,95.41,17.25Z"/><polygon class="cls-79" points="93.82 23.41 94.46 23.55 94.89 21.43 94.25 21.3 93.82 23.41"/><path class="cls-79" d="M93.42,24.39a.51.51,0,0,0,.42.58.49.49,0,0,0,.6-.36l.41-2a.51.51,0,0,0-.42-.58.49.49,0,0,0-.6.36Z"/><path class="cls-80" d="M68.6,8l-.86-.78-.12.13.86.78-.28.31L67.75,8l-.12.13.45.41-.28.31-.45-.41-.13.13.46.41-.28.31-.46-.41L66.82,9l.45.41L67,9.73,66.14,9,66,9.08l.85.78-.28.31-.45-.41L66,9.89l.45.42-.28.3-.45-.41-.12.13.45.42-.28.3-.45-.41-.12.14.45.41-.28.3-.86-.78-.12.14.86.78-.28.3-.46-.41-.12.14.45.41-.28.31L64.13,12,64,12.1l.45.41-.28.31-.45-.42-.12.14.45.41-.28.31-.86-.78-.12.13.86.78-.28.31-.45-.41-.12.13.45.41-.28.31-.45-.41-.13.13.45.41-.27.31-.46-.41L62,14.3l.45.41-.28.31-.85-.78-.13.13.86.78-.56.62-1.23-1.13,7.09-7.79,1.15-.17a.35.35,0,0,0,.1.2.34.34,0,0,0,.55-.29l.77-.12,0,0ZM67.35,6.85l1.36-1.48,1.21,1.1-.77.12a.33.33,0,0,0-.11-.2.33.33,0,0,0-.46,0h0a.31.31,0,0,0-.08.27Z"/><path class="cls-81" d="M88.4,4.08l2.33,1.36L91.59,7,91,7l-.11-.12h0l.22-.48-.49-.88h0l-.08,0a.25.25,0,0,0-.36.09.31.31,0,0,0,.09.35.28.28,0,0,0-.25,0Zm1.58,3L86.35,5h0l-.14-.16a.21.21,0,0,0,.15-.11l.18-.39h0a.21.21,0,0,1-.25,0l-1-.6-.49-.55.41-.89a.24.24,0,0,1,.31,0L87,3.1a.33.33,0,0,1,.15.23l1.3.75L90.05,6,90,6a.31.31,0,0,0,.09.35.24.24,0,0,0-.3.12.32.32,0,0,0,.14.39L90,7l.87-.06L91,7l-1,.06ZM83.66,1.93l1.07,1.21.21-1-.38-.22A.83.83,0,0,0,83.66,1.93Zm2.67,3a.24.24,0,0,1-.23,0l-1.48-.86a.3.3,0,0,1-.15-.3l-.6-.35a1,1,0,0,1-.46-1.22.65.65,0,0,1,.25-.29l1.07,1.21,0,.14,0-.11.49.55L85,3.57a.28.28,0,0,1-.13-.23l-.18.39a.25.25,0,0,0,.12.31l1.27.74a.35.35,0,0,0,.14,0Z"/><path class="cls-78" d="M70.75,27.46l.08-.15,3.58,1.18a.57.57,0,0,0,.68-.3.42.42,0,0,0-.24-.61l-3.58-1.19.08-.15L75,27.44a.57.57,0,0,1,.32.81.78.78,0,0,1-.91.41Z"/><path class="cls-78" d="M70.71,27.66a.16.16,0,0,0,.18-.07l.66-1.37a.11.11,0,0,0-.07-.15.15.15,0,0,0-.17.07l-.67,1.37A.11.11,0,0,0,70.71,27.66Z"/><path class="cls-78" d="M71.24,27.28l.09-.19,3.2,1.07a.44.44,0,0,0,.35-.06v0a.4.4,0,0,1-.47.21Z"/><path class="cls-81" d="M81.64,27.94l1.42,1.27a.88.88,0,0,1,.07,1.25L79.88,34a.47.47,0,0,1-.15.13l.44-1.4,0,0,.32-.34a.14.14,0,0,0,0-.2L80.39,32l.1-.33.26.23a.14.14,0,0,0,.2,0l.32-.34a.14.14,0,0,0,0-.2l-.52-.47.17-.54.5.46a.45.45,0,0,0,.62,0l.49-.53a.43.43,0,0,0,0-.61l-1.06-.95Zm-.76-.69.76.69-.22.72L80.65,28l.23-.73Zm-1.15,6.84a.93.93,0,0,1-1,0l.28-.89.26.23a.14.14,0,0,0,.2,0l.32-.34a.14.14,0,0,0,0-.2l-.52-.47.1-.35.64.58a.16.16,0,0,0,.16,0l-.44,1.4Zm1.18-3.78-.17.54-.26-.23a.14.14,0,0,0-.2,0L80,31h0a.14.14,0,0,0,0,.2l.52.48-.1.33-.64-.57a.16.16,0,0,0-.16,0l.25-.8L80,30.4a.14.14,0,0,0,0-.2l0,0,.17-.53Zm-.71-3.67.68.61-.23.73L80,27.37l.23-.73Zm-1.46,7.48-.13-.1-.55-.49L78.54,32h0a.13.13,0,0,0,0-.12l.11-.37.07.06a.13.13,0,0,0,.2,0l.32-.34a.15.15,0,0,0,0-.2l-.34-.3.11-.34.45.4a.13.13,0,0,0,.2,0l.14-.15-.25.8,0,0-.31.35h0a.13.13,0,0,0,0,.2l.14.12-.1.35L79,32.21a.14.14,0,0,0-.2,0l-.33.35h0a.13.13,0,0,0,0,.19l.52.47-.28.89Zm1.4-4.49-.17.53-.68-.6.17-.54Zm-.2-3.22.26.23-.23.73L79.59,27a.61.61,0,0,0-.21-.11l.21-.7a.92.92,0,0,1,.35.19Zm-1.88,7.12L77.49,33l.28-.9.26.23a.13.13,0,0,0,.19,0l.32-.34-.48,1.54ZM79.46,29l-.17.54-.06-.06a.14.14,0,0,0-.2,0l-.32.34h0a.13.13,0,0,0,0,.2l.34.3-.11.34-.45-.4a.14.14,0,0,0-.15,0l.24-.78.19-.21a.14.14,0,0,0,0-.2l0,0,.17-.53.57.51Zm-.77,2.47-.11.37a.16.16,0,0,0,0-.07L78,31.32l.11-.35ZM77.49,33l-.42-.37.28-.91.42.38-.28.9Zm1.57-6.79a1,1,0,0,1,.53,0l-.21.7a.45.45,0,0,0-.4.13l-.27.29.35-1.12Zm-.17,2.29-.17.53-.42-.37.17-.55a.19.19,0,0,0,.06.07l.36.32Zm-.31,1-.24.78,0,0-.32.35h0a.13.13,0,0,0,0,.2l.14.12-.11.35-.26-.23a.14.14,0,0,0-.2,0v0l.23-.76.26-.28a.15.15,0,0,0,0-.21L78,29.8l.1-.34.2.18a.15.15,0,0,0,.2,0Zm-1.51,3.15-.26-.23.48-1.53h0a.15.15,0,0,0,0-.13l.12-.37.06.06a.15.15,0,0,0,.21,0l0-.06-.23.76-.31.33h0a.13.13,0,0,0,0,.19l.11.09-.28.91Zm1.59-6.16h0a.85.85,0,0,1,.39-.25l-.35,1.12-.22.24h0a.41.41,0,0,0,0,.54l-.17.55-.25-.23.61-2Zm-.61,3-.1.34-.26-.22.11-.34Zm-1.24,2.95-.57-.51.28-.91.26.23a.14.14,0,0,0,.2,0l.31-.34-.48,1.53Zm.74-4.74,1.11-1.19-.61,2L78,28.38a.15.15,0,0,0-.2,0l-.32.35h0a.14.14,0,0,0,0,.2l.33.3-.11.34-.44-.41a.18.18,0,0,0-.16,0l.46-1.48Zm-.1,2.7-.12.37a.13.13,0,0,0,0-.07l-.53-.47.11-.34ZM76.24,31.9l-.76-.68A.88.88,0,0,1,75.42,30l2.13-2.3-.46,1.48,0,0-.32.34h0a.14.14,0,0,0,0,.2l.14.13-.11.34L76.51,30a.14.14,0,0,0-.2,0l-.33.35h0a.14.14,0,0,0,0,.19l.53.47Z"/><path class="cls-82" d="M92.28,24.17l-1.07-.82-1.46,4.19.5-.67a2.71,2.71,0,0,1-2,5h0l-.28.79a.55.55,0,0,1,.34.7.55.55,0,0,1-.7.34l-.18.53,2.78,1,.2-.57c.13-.39-.35-.85-1.09-1.25a4.06,4.06,0,0,0,1.76-7.6Zm-1.07-.82L90.68,23l-3.37,4.49,1.6,1.21.84-1.12,1.46-4.19Zm-3,8.53a2.68,2.68,0,0,1-1.31-1l1.13.39.24-.7L86.53,30l-1.41-.49-.28-.09-.24.69.63.22a4,4,0,0,0,1.26,2.1c-.83-.13-1.49-.07-1.63.31l-.2.58,2.76,1,.18-.53a.55.55,0,0,1,.36-1Z"/><path class="cls-83" d="M65.43,7.34l-.12-.1L63.2,9.73a.43.43,0,0,1-.62,0,.44.44,0,0,1-.09-.62L64.6,6.64l-.12-.1L62.35,9.06a.62.62,0,0,0,.95.8Z"/><path class="cls-83" d="M65.55,7.49a.11.11,0,0,1-.16,0l-1.06-.9a.11.11,0,1,1,.14-.17l1.06.9A.1.1,0,0,1,65.55,7.49Z"/><path class="cls-83" d="M65,7.39l-.14-.13L63,9.49a.27.27,0,0,1-.28.1h0a.3.3,0,0,0,.43,0Z"/><path class="cls-83" d="M84.76,6.89a.53.53,0,0,0-.72,0,.47.47,0,0,0-.07.68.54.54,0,0,0,.73,0A.46.46,0,0,0,84.76,6.89Z"/><path class="cls-83" d="M84.7,7.35l1,2.52a3.86,3.86,0,0,1-.08.64s-1.22-3-1.22-3Z"/><polygon class="cls-83" points="84.51 7.6 87.2 8.42 87.84 8.38 87.34 8.09 84.7 7.25 84.48 7.59 84.51 7.6"/><path class="cls-83" d="M84,7.09a.09.09,0,0,0,.13,0,.08.08,0,0,0,0-.12l-.24-.24a.09.09,0,0,0-.13,0,.08.08,0,0,0,0,.12Z"/><path class="cls-78" d="M87.3,24.51,84,26l-.73-.56.64-3.55.86.66L84.25,25l2.2-1.13Z"/><path class="cls-78" d="M88.1,24.42l-3-5,.41-.53,3,5Z"/><path class="cls-78" d="M89.78,21.28l-.86-.65.53-2.42-2.19,1.14-.84-.65,3.26-1.53.73.55Z"/><path class="cls-83" d="M87.26,43.83l-.88-.68a.44.44,0,0,0-.62.07.4.4,0,0,0-.06.43l-1.57,0c1.24-1.24,2.25-3.92,3-8a.42.42,0,0,0-.35-.5.44.44,0,0,0-.52.34c-1.14,6-2.54,7.53-3.28,7.93l-.11.06.15-6.72a.41.41,0,0,0,.24.08.42.42,0,0,0,.26-.08.43.43,0,0,0,.11-.6L83,35.24a.42.42,0,0,0-.35-.19.47.47,0,0,0-.36.16l-.7.87a.43.43,0,0,0,.07.61.45.45,0,0,0,.47,0L82,43.43c-1.44-.48-2.78-4.93-3.29-8.14a.46.46,0,0,0-.51-.36.44.44,0,0,0-.37.5,37.2,37.2,0,0,0,1,4.31,10.56,10.56,0,0,0,1.85,3.81l-2.61-.06a.44.44,0,0,0-.45.42.45.45,0,0,0,.44.45l7.63.16a.44.44,0,0,0,0,.52.44.44,0,0,0,.36.18.41.41,0,0,0,.26-.07l.91-.62a.42.42,0,0,0,.19-.34.43.43,0,0,0-.17-.36Z"/><path class="cls-77" d="M93.12,8.24a.8.8,0,0,0-.06,1.09.45.45,0,0,0,.13.11l-.27.67a1,1,0,0,0-.51,0,1.22,1.22,0,0,0-.82,1.22l-3,.68A1.25,1.25,0,0,0,87,11.22a1.41,1.41,0,0,0-.92,1.09l-2.84.06s0-.07,0-.1a.83.83,0,0,0-1.08-.58.94.94,0,0,0-.59,1.14.83.83,0,0,0,1.07.58.93.93,0,0,0,.61-.72l2.83-.06a1.12,1.12,0,0,0,0,.31,1.3,1.3,0,0,0,.47.69L85,15.83a.84.84,0,0,0-.87.09.93.93,0,0,0-.23,1.26.85.85,0,0,0,1.21.2.94.94,0,0,0,.23-1.26L85.28,16l1.56-2.23a1.29,1.29,0,0,0,.89,0,1.32,1.32,0,0,0,.29-.15l.37.43a.81.81,0,0,0-.12.68.71.71,0,0,0,.92.49.79.79,0,0,0,.5-1,.71.71,0,0,0-.91-.49l-.16.07-.35-.41a1.42,1.42,0,0,0,.4-1.11l3-.68a1.08,1.08,0,0,0,1.11.76l.39,2.32a.76.76,0,0,0-.4.88.67.67,0,0,0,.86.46.74.74,0,0,0,.47-.9.65.65,0,0,0-.63-.5l-.39-2.32a1,1,0,0,0,.23-.12l1.92,2.45a.8.8,0,0,0-.14.7.71.71,0,0,0,.91.49.79.79,0,0,0,.49-1,.7.7,0,0,0-.9-.49.67.67,0,0,0-.12.06l-1.92-2.45a1.26,1.26,0,0,0,.28-1.15,1.08,1.08,0,0,0-.6-.71l.26-.64a.75.75,0,0,0,.64-.2.8.8,0,0,0,.06-1.09.72.72,0,0,0-1,0Z"/><path class="cls-80" d="M81.46,18.51c0-.4,0-1.08.29-1.31h0c.28-.1.47-.23.32-.42l-4.15-1.33-6.73,1s-.77.12-.7,1.39a1.63,1.63,0,0,0,.42,1.2l-.55.18c-.16.18,0,.32.32.41a0,0,0,0,0,0,0c.34.23.33.91.28,1.31-1.23.37-.79.49-.79.49l.27.07a1.46,1.46,0,0,0-.34,1.2c.07,1.27.7,1.36.7,1.36l4.4,1.53,6.64-1.72s.45-.12-.79-.5c0-.39-.06-1.07.29-1.3l0,0c.28-.09.47-.23.32-.41l-.29-.09c.19-.13.48-.45.53-1.29a1.54,1.54,0,0,0-.28-1.12l.57-.15s.45-.12-.79-.49Zm-5.56,0L77,18.25l3.78-.83.56-.12a2.19,2.19,0,0,0-.14,1.14.9.9,0,0,0,0,.18l-.62.16L75.86,20Zm-4.79,1.24.56.13,3.62.79.32.07,1,.21,0,1.55-4.9-1.3-.48-.13a1.62,1.62,0,0,1,0-.18,2.3,2.3,0,0,0-.14-1.14Zm-.22-2a1.06,1.06,0,0,1,.16-.71.29.29,0,0,1,.22-.1h.06l2.89,1,1.45.5,0,1.56-4.05-1.21-.22-.06h0s-.41,0-.43-1Zm4.36,7.15L71,23.64h0s-.41,0-.43-1a1.1,1.1,0,0,1,.16-.71.28.28,0,0,1,.22-.09h0l4.35,1.51Zm5.6-1.61a.9.9,0,0,0,0,.18l-5.38,1.43,0-1.55,1.15-.26.17.05.64-.22,2.94-.65.56-.12a2.19,2.19,0,0,0-.14,1.14Zm.29-2.11h0l-.4.13-3.87,1.15,0-1.56,1.26-.45,3.07-1.06a.3.3,0,0,1,.28.09,1,1,0,0,1,.17.71c0,.95-.42,1-.44,1Z"/><path class="cls-79" d="M76.46,12.52l1.94-.23,1.2.44-.32.26-.12,0,0,0-.1-.33-.69-.26h-.07c-.11,0-.19.1-.16.19a.26.26,0,0,0,.22.15.17.17,0,0,0-.12.11Zm2.3.89-3,.37h0l-.16,0a.11.11,0,0,0,0-.11l-.08-.27h0a.14.14,0,0,1-.14.1l-.85.11L74,13.5l-.2-.62c0-.06.06-.12.16-.14l1.23-.14a.25.25,0,0,1,.19.05l1.07-.13,1.81.3a.2.2,0,0,0,0,.07.22.22,0,0,0,.21.14c-.09,0-.14.1-.11.18a.25.25,0,0,0,.26.14h.06l.46-.37.12,0-.52.42Zm-6-.11,1.17.19-.35-.58-.32,0A.6.6,0,0,0,72.81,13.3Zm2.93.49a.22.22,0,0,1-.14.08L74.37,14a.24.24,0,0,1-.23-.1l-.5.07a.79.79,0,0,1-.83-.45.49.49,0,0,1,0-.24l1.17.19,0,.09,0-.08.53.09-.22,0a.19.19,0,0,1-.18-.06l.08.27a.2.2,0,0,0,.21.11l1-.13a.15.15,0,0,0,.1,0Z"/><path class="cls-84" d="M24.4,27.51q0,6.54-6.65,6.54H9.06V45.79h3.7v5.15H0V45.79H3.38V18.23H0V13.09H17.43q7,0,7,6.48ZM18.93,27V19.57c0-.89-.67-1.34-2-1.34H9.06V28.9h7.71C18.21,28.9,18.93,28.28,18.93,27Z"/><path class="cls-84" d="M55.71,50.94H43.48V45.79h3.27v-8.9c0-1.28-.22-2.11-.68-2.46a4.38,4.38,0,0,0-2.59-.54H36v11.9h3.21v5.15H27V45.79h3.38V18.23H27V13.09h18.6q6.33,0,6.33,5.95v7.77a5,5,0,0,1-2.62,4.51,4.19,4.19,0,0,1,2.41,1.87,6.76,6.76,0,0,1,.53,3v9.59h3.49ZM46.43,26.49v-6.7c0-1-.86-1.56-2.57-1.56H36V28.74h7.5a4.36,4.36,0,0,0,2.15-.37A2,2,0,0,0,46.43,26.49Z"/><path class="cls-84" d="M139.93,50.62H127.28V45.48h3.81V23.65l-7.56,17.64h-4.4l-7.56-17.64V45.48h3.81v5.14H102.72V45.48h3.38V17.92h-3.38V12.77h10.19l8.42,20.48,8.84-20.48h9.76v5.15h-3.38V45.48h3.38Z"/><path class="cls-84" d="M169.26,50.62H144.49V45.48h3.38V17.92h-3.38V12.77h24.77V23.65h-5.47V17.92H153.5V28.43h11.42v5.14H153.5V45.48h10.29v-6h5.47Z"/><path class="cls-84" d="M196.77,23.65h-5.31V17.92h-4.83V45.48h4.18v5.14h-14V45.48H181V17.92h-4.83v5.73h-5.31V12.77h26Z"/><path class="cls-84" d="M228.19,50.62H215.8V45.48h3.38V33.57H208V45.48h3.38v5.14H199V45.48h3.38V17.92H199V12.77H211.4v5.15H208V28.43h11.16V17.92H215.8V12.77h12.39v5.15h-3.38V45.48h3.38Z"/><path class="cls-84" d="M257.51,50.62H232.74V45.48h3.38V17.92h-3.38V12.77h24.77V23.65H252V17.92H241.75V28.43h11.42v5.14H241.75V45.48H252v-6h5.47Z"/><path class="cls-84" d="M291.29,17.92h-3.22V43.81c0,2.44-.6,4.18-1.82,5.23s-3.05,1.58-5.52,1.58H272.9c-2.54,0-4.4-.56-5.6-1.69s-1.8-3-1.8-5.49V17.92h-3.22V12.77h12.44v5.15h-3.53v25a5,5,0,0,0,.21,1.77c.25.54,1,.81,2.2.81h6.32q1.62,0,2-.51a3.41,3.41,0,0,0,.43-2.07v-25h-3.54V12.77h12.44Z"/><path class="cls-84" d="M318.05,44.78q0,5.85-7.29,5.84h-15V39.79h5.3v5.69h9.22c1.5,0,2.26-.54,2.26-1.61V36.2a4.61,4.61,0,0,0-.32-2.06c-.22-.38-.79-.57-1.73-.57h-8.71c-4,0-6-1.71-6-5.14V18.88q0-6.1,6.46-6.11h15.41V23.65h-5.09V17.92h-9.05a3.35,3.35,0,0,0-1.62.29c-.32.2-.48.65-.48,1.37v7.56c0,.86.51,1.29,1.55,1.29h8.74q6.33,0,6.33,6.22Z"/></g></g></svg>